<?xml version="1.0"?>
<svg version="1.1" xmlns="http://www.w3.org/2000/svg" width="103" height="80" style=""><path fill="#127dc9" d="M39.5390625,59.265625q0,4.640625-3.33984375,7.3125t-9.29296875,2.671875q-5.484375,0-9.703125-2.0625l0-6.75q3.46875,1.546875,5.87109375,2.1796875t4.39453125,0.6328125q2.390625,0,3.66796875-0.9140625t1.27734375-2.71875q0-1.0078125-0.5625-1.79296875t-1.65234375-1.51171875t-4.44140625-2.3203125q-3.140625-1.4765625-4.7109375-2.8359375t-2.5078125-3.1640625t-0.9375-4.21875q0-4.546875,3.08203125-7.1484375t8.51953125-2.6015625q2.671875,0,5.09765625,0.6328125t5.07421875,1.78125l-2.34375,5.6484375q-2.7421875-1.125-4.53515625-1.5703125t-3.52734375-0.4453125q-2.0625,0-3.1640625,0.9609375t-1.1015625,2.5078125q0,0.9609375,0.4453125,1.67578125t1.41796875,1.3828125t4.60546875,2.40234375q4.8046875,2.296875,6.5859375,4.60546875t1.78125,5.66015625z M76.611796875,68.78125l-8.25,0l-8.9765625-14.4375l-3.0703125,2.203125l0,12.234375l-7.265625,0l0-34.265625l7.265625,0l0,15.6796875l2.859375-4.03125l9.28125-11.6484375l8.0625,0l-11.953125,15.1640625z M98.77828125,40.0703125q-4.1015625,0-6.3515625,3.08203125t-2.25,8.58984375q0,11.4609375,8.6015625,11.4609375q3.609375,0,8.7421875-1.8046875l0,6.09375q-4.21875,1.7578125-9.421875,1.7578125q-7.4765625,0-11.4375-4.53515625t-3.9609375-13.01953125q0-5.34375,1.9453125-9.36328125t5.58984375-6.1640625t8.54296875-2.14453125q4.9921875,0,10.03125,2.4140625l-2.34375,5.90625q-1.921875-0.9140625-3.8671875-1.59375t-3.8203125-0.6796875z"/><path fill="#" d=""/></svg>
